<svg width="939" height="242" viewBox="0 0 939 242" fill="none" xmlns="http://www.w3.org/2000/svg">
<g clip-path="url(#clip0_510_241)">
<path d="M58.568 180.651L58.5107 180.688L58.417 180.636C58.4691 180.646 58.516 180.651 58.568 180.651Z" fill="#1C1D1D"/>
<path d="M155.12 35.0003V180.87" stroke="#14233E" stroke-width="4" stroke-miterlimit="10"/>
<path d="M195.263 75.75C192.664 75.75 190.257 75.3229 188.054 74.4583C185.846 73.5885 183.935 72.3542 182.325 70.7708C180.711 69.1927 179.455 67.3333 178.554 65.2083C177.648 63.0729 177.2 60.7292 177.2 58.1875C177.2 55.6615 177.648 53.3281 178.554 51.1875C179.455 49.0521 180.721 47.1979 182.346 45.625C183.981 44.0469 185.898 42.8125 188.096 41.9375C190.299 41.0677 192.705 40.625 195.304 40.625C197.799 40.625 200.148 41.0521 202.346 41.8958C204.549 42.7292 206.414 43.9896 207.929 45.6667L205.617 47.9792C204.2 46.5365 202.632 45.4948 200.929 44.8542C199.221 44.2031 197.377 43.875 195.409 43.875C193.336 43.875 191.414 44.2344 189.638 44.9375C187.856 45.6458 186.31 46.6562 184.992 47.9583C183.685 49.25 182.653 50.7656 181.909 52.5C181.169 54.224 180.804 56.1198 180.804 58.1875C180.804 60.2604 181.169 62.1615 181.909 63.8958C182.653 65.6198 183.685 67.1354 184.992 68.4375C186.31 69.7292 187.856 70.7344 189.638 71.4375C191.414 72.1458 193.336 72.5 195.409 72.5C197.377 72.5 199.221 72.1771 200.929 71.5208C202.632 70.8594 204.2 69.8021 205.617 68.3542L207.929 70.6667C206.414 72.349 204.549 73.6198 202.346 74.4792C200.148 75.3281 197.789 75.75 195.263 75.75Z" fill="#221E1F"/>
<path d="M230.092 75.75C227.478 75.75 225.061 75.3229 222.842 74.4583C220.634 73.5885 218.707 72.349 217.072 70.75C215.447 69.1563 214.181 67.3021 213.28 65.1875C212.374 63.0677 211.926 60.7292 211.926 58.1875C211.926 55.6615 212.374 53.3333 213.28 51.2083C214.181 49.0885 215.447 47.2292 217.072 45.6458C218.707 44.0521 220.624 42.8125 222.822 41.9375C225.025 41.0677 227.452 40.625 230.092 40.625C232.686 40.625 235.082 41.0677 237.28 41.9375C239.483 42.8125 241.405 44.0469 243.03 45.625C244.65 47.1979 245.915 49.0521 246.822 51.1875C247.733 53.3281 248.197 55.6615 248.197 58.1875C248.197 60.7292 247.733 63.0729 246.822 65.2083C245.915 67.3333 244.65 69.1927 243.03 70.7708C241.405 72.3542 239.483 73.5885 237.28 74.4583C235.082 75.3229 232.686 75.75 230.092 75.75ZM230.092 72.5C232.16 72.5 234.072 72.1458 235.822 71.4375C237.582 70.7344 239.113 69.7292 240.405 68.4375C241.707 67.1354 242.723 65.6198 243.447 63.8958C244.165 62.1615 244.53 60.2604 244.53 58.1875C244.53 56.1198 244.165 54.224 243.447 52.5C242.723 50.7656 241.707 49.25 240.405 47.9583C239.113 46.6562 237.582 45.6458 235.822 44.9375C234.072 44.2344 232.16 43.875 230.092 43.875C228.009 43.875 226.077 44.2344 224.301 44.9375C222.535 45.6458 220.999 46.6562 219.697 47.9583C218.405 49.25 217.379 50.7656 216.634 52.5C215.895 54.224 215.53 56.1198 215.53 58.1875C215.53 60.2292 215.895 62.1302 216.634 63.875C217.379 65.6146 218.405 67.1354 219.697 68.4375C220.999 69.7292 222.535 70.7344 224.301 71.4375C226.077 72.1458 228.009 72.5 230.092 72.5Z" fill="#221E1F"/>
<path d="M256.373 75.4582V40.9165H259.373L275.165 67.854H273.581L289.227 40.9165H292.227V75.4582H288.727V46.3957H289.581L275.165 71.0623H273.436L258.936 46.3957H259.873V75.4582H256.373Z" fill="#221E1F"/>
<path d="M303.48 75.4582V40.9165H316.397C319.324 40.9165 321.84 41.3905 323.939 42.3332C326.048 43.2655 327.673 44.6144 328.814 46.3748C329.949 48.1405 330.522 50.2759 330.522 52.7707C330.522 55.203 329.949 57.3019 328.814 59.0623C327.673 60.8123 326.048 62.1717 323.939 63.1248C321.84 64.0832 319.324 64.5623 316.397 64.5623H305.501L307.126 62.8332V75.4582H303.48ZM307.126 63.1248L305.501 61.354H316.314C319.757 61.354 322.376 60.604 324.168 59.104C325.954 57.6092 326.855 55.4946 326.855 52.7707C326.855 50.0103 325.954 47.8696 324.168 46.354C322.376 44.8436 319.757 44.0832 316.314 44.0832H305.501L307.126 42.354V63.1248Z" fill="#221E1F"/>
<path d="M352.567 75.7503C348.15 75.7503 344.676 74.4899 342.15 71.9587C339.619 69.4326 338.358 65.6826 338.358 60.7087V40.917H342.004V60.5628C342.004 64.6357 342.921 67.641 344.754 69.5837C346.598 71.5316 349.202 72.5003 352.567 72.5003C355.952 72.5003 358.567 71.5316 360.4 69.5837C362.244 67.641 363.171 64.6357 363.171 60.5628V40.917H366.713V60.7087C366.713 65.6826 365.452 69.4326 362.942 71.9587C360.426 74.4899 356.968 75.7503 352.567 75.7503Z" fill="#221E1F"/>
<path d="M383.734 75.4582V44.0832H371.588V40.9165H399.525V44.0832H387.38V75.4582H383.734Z" fill="#221E1F"/>
<path d="M405.339 75.4582V40.9165H408.985V75.4582H405.339Z" fill="#221E1F"/>
<path d="M420.235 75.4582V40.9165H423.235L447.069 70.9165H445.485V40.9165H449.09V75.4582H446.09L422.298 45.4582H423.881V75.4582H420.235Z" fill="#221E1F"/>
<path d="M475.484 75.75C472.843 75.75 470.411 75.3229 468.192 74.4583C465.984 73.5885 464.057 72.3542 462.421 70.7708C460.796 69.1927 459.531 67.3333 458.63 65.2083C457.723 63.0729 457.275 60.7292 457.275 58.1875C457.275 55.6615 457.723 53.3281 458.63 51.1875C459.531 49.0521 460.801 47.1979 462.442 45.625C464.093 44.0469 466.031 42.8125 468.255 41.9375C470.473 41.0677 472.9 40.625 475.525 40.625C478.161 40.625 480.572 41.0469 482.755 41.875C484.947 42.6979 486.817 43.9427 488.359 45.6042L486.088 47.9375C484.64 46.4844 483.041 45.4375 481.296 44.8125C479.557 44.1927 477.682 43.875 475.671 43.875C473.531 43.875 471.562 44.2344 469.775 44.9375C467.984 45.6458 466.416 46.6562 465.088 47.9583C463.765 49.25 462.729 50.7656 461.984 52.5C461.244 54.224 460.88 56.1198 460.88 58.1875C460.88 60.2292 461.244 62.1302 461.984 63.875C462.729 65.6146 463.765 67.1354 465.088 68.4375C466.416 69.7292 467.984 70.7344 469.775 71.4375C471.562 72.1458 473.515 72.5 475.63 72.5C477.598 72.5 479.463 72.2083 481.213 71.625C482.973 71.0313 484.598 70.0208 486.088 68.6042L488.171 71.3542C486.515 72.8125 484.583 73.9115 482.38 74.6458C480.182 75.3854 477.885 75.75 475.484 75.75ZM484.65 70.9167V58.1875H488.171V71.3542L484.65 70.9167Z" fill="#221E1F"/>
<path d="M520.911 75.75C518.339 75.75 515.88 75.3333 513.536 74.5C511.187 73.6563 509.365 72.5781 508.078 71.2708L509.516 68.4583C510.734 69.6406 512.375 70.6354 514.432 71.4375C516.484 72.2448 518.646 72.6458 520.911 72.6458C523.073 72.6458 524.839 72.375 526.203 71.8333C527.573 71.2969 528.583 70.5625 529.224 69.6458C529.859 68.7188 530.182 67.6979 530.182 66.5833C530.182 65.2396 529.792 64.1563 529.016 63.3333C528.25 62.5052 527.24 61.849 525.995 61.375C524.745 60.9062 523.359 60.4896 521.849 60.125C520.333 59.7656 518.818 59.375 517.307 58.9583C515.792 58.5469 514.401 57.9948 513.141 57.3125C511.875 56.6198 510.854 55.7031 510.078 54.5625C509.312 53.4271 508.932 51.9375 508.932 50.1042C508.932 48.401 509.38 46.8281 510.286 45.3958C511.187 43.9687 512.578 42.8125 514.453 41.9375C516.323 41.0677 518.724 40.625 521.641 40.625C523.583 40.625 525.505 40.901 527.411 41.4375C529.323 41.9792 530.974 42.7344 532.349 43.6875L531.12 46.6042C529.646 45.6198 528.073 44.8958 526.411 44.4375C524.745 43.9687 523.135 43.7292 521.599 43.7292C519.526 43.7292 517.818 44.0156 516.474 44.5833C515.125 45.1406 514.125 45.8906 513.474 46.8333C512.833 47.7656 512.516 48.8229 512.516 50C512.516 51.349 512.901 52.4427 513.682 53.2708C514.458 54.0937 515.479 54.7344 516.745 55.1875C518.005 55.6458 519.396 56.0573 520.911 56.4167C522.422 56.7812 523.922 57.1771 525.411 57.6042C526.906 58.0365 528.292 58.5937 529.557 59.2708C530.833 59.9375 531.854 60.8385 532.62 61.9583C533.396 63.0729 533.786 64.5313 533.786 66.3333C533.786 68.0156 533.318 69.5729 532.391 71C531.474 72.4323 530.068 73.5885 528.182 74.4583C526.292 75.3229 523.865 75.75 520.911 75.75Z" fill="#221E1F"/>
<path d="M556.831 75.75C554.216 75.75 551.799 75.3229 549.581 74.4583C547.372 73.5885 545.445 72.349 543.81 70.75C542.185 69.1563 540.919 67.3021 540.018 65.1875C539.112 63.0677 538.664 60.7292 538.664 58.1875C538.664 55.6615 539.112 53.3333 540.018 51.2083C540.919 49.0885 542.185 47.2292 543.81 45.6458C545.445 44.0521 547.362 42.8125 549.56 41.9375C551.763 41.0677 554.19 40.625 556.831 40.625C559.424 40.625 561.82 41.0677 564.018 41.9375C566.221 42.8125 568.143 44.0469 569.768 45.625C571.388 47.1979 572.654 49.0521 573.56 51.1875C574.471 53.3281 574.935 55.6615 574.935 58.1875C574.935 60.7292 574.471 63.0729 573.56 65.2083C572.654 67.3333 571.388 69.1927 569.768 70.7708C568.143 72.3542 566.221 73.5885 564.018 74.4583C561.82 75.3229 559.424 75.75 556.831 75.75ZM556.831 72.5C558.898 72.5 560.81 72.1458 562.56 71.4375C564.32 70.7344 565.852 69.7292 567.143 68.4375C568.445 67.1354 569.461 65.6198 570.185 63.8958C570.904 62.1615 571.268 60.2604 571.268 58.1875C571.268 56.1198 570.904 54.224 570.185 52.5C569.461 50.7656 568.445 49.25 567.143 47.9583C565.852 46.6562 564.32 45.6458 562.56 44.9375C560.81 44.2344 558.898 43.875 556.831 43.875C554.747 43.875 552.815 44.2344 551.039 44.9375C549.273 45.6458 547.737 46.6562 546.435 47.9583C545.143 49.25 544.117 50.7656 543.372 52.5C542.633 54.224 542.268 56.1198 542.268 58.1875C542.268 60.2292 542.633 62.1302 543.372 63.875C544.117 65.6146 545.143 67.1354 546.435 68.4375C547.737 69.7292 549.273 70.7344 551.039 71.4375C552.815 72.1458 554.747 72.5 556.831 72.5Z" fill="#221E1F"/>
<path d="M598.111 75.75C595.512 75.75 593.106 75.3229 590.903 74.4583C588.695 73.5885 586.783 72.3542 585.174 70.7708C583.559 69.1927 582.304 67.3333 581.403 65.2083C580.497 63.0729 580.049 60.7292 580.049 58.1875C580.049 55.6615 580.497 53.3281 581.403 51.1875C582.304 49.0521 583.57 47.1979 585.195 45.625C586.83 44.0469 588.747 42.8125 590.945 41.9375C593.148 41.0677 595.554 40.625 598.153 40.625C600.648 40.625 602.997 41.0521 605.195 41.8958C607.398 42.7292 609.262 43.9896 610.778 45.6667L608.465 47.9792C607.049 46.5365 605.481 45.4948 603.778 44.8542C602.07 44.2031 600.226 43.875 598.257 43.875C596.184 43.875 594.262 44.2344 592.486 44.9375C590.705 45.6458 589.158 46.6562 587.84 47.9583C586.533 49.25 585.502 50.7656 584.757 52.5C584.018 54.224 583.653 56.1198 583.653 58.1875C583.653 60.2604 584.018 62.1615 584.757 63.8958C585.502 65.6198 586.533 67.1354 587.84 68.4375C589.158 69.7292 590.705 70.7344 592.486 71.4375C594.262 72.1458 596.184 72.5 598.257 72.5C600.226 72.5 602.07 72.1771 603.778 71.5208C605.481 70.8594 607.049 69.8021 608.465 68.3542L610.778 70.6667C609.262 72.349 607.398 73.6198 605.195 74.4792C602.997 75.3281 600.637 75.75 598.111 75.75Z" fill="#221E1F"/>
<path d="M618.577 75.4582V40.9165H622.223V75.4582H618.577Z" fill="#221E1F"/>
<path d="M636.724 56.3748H654.974V59.479H636.724V56.3748ZM637.119 72.2915H657.89V75.4582H633.474V40.9165H657.161V44.0832H637.119V72.2915Z" fill="#221E1F"/>
<path d="M673.182 75.4582V44.0832H661.036V40.9165H688.974V44.0832H676.828V75.4582H673.182Z" fill="#221E1F"/>
<path d="M702.771 75.4582V62.6248L703.625 64.8957L688.958 40.9165H692.854L705.729 61.9998H703.666L716.541 40.9165H720.187L705.541 64.8957L706.375 62.6248V75.4582H702.771Z" fill="#221E1F"/>
<path d="M753.891 75.75C751.277 75.75 748.86 75.3229 746.641 74.4583C744.433 73.5885 742.506 72.349 740.87 70.75C739.245 69.1563 737.98 67.3021 737.079 65.1875C736.173 63.0677 735.725 60.7292 735.725 58.1875C735.725 55.6615 736.173 53.3333 737.079 51.2083C737.98 49.0885 739.245 47.2292 740.87 45.6458C742.506 44.0521 744.423 42.8125 746.62 41.9375C748.824 41.0677 751.251 40.625 753.891 40.625C756.485 40.625 758.881 41.0677 761.079 41.9375C763.282 42.8125 765.204 44.0469 766.829 45.625C768.449 47.1979 769.714 49.0521 770.62 51.1875C771.532 53.3281 771.995 55.6615 771.995 58.1875C771.995 60.7292 771.532 63.0729 770.62 65.2083C769.714 67.3333 768.449 69.1927 766.829 70.7708C765.204 72.3542 763.282 73.5885 761.079 74.4583C758.881 75.3229 756.485 75.75 753.891 75.75ZM753.891 72.5C755.959 72.5 757.87 72.1458 759.62 71.4375C761.381 70.7344 762.912 69.7292 764.204 68.4375C765.506 67.1354 766.521 65.6198 767.245 63.8958C767.964 62.1615 768.329 60.2604 768.329 58.1875C768.329 56.1198 767.964 54.224 767.245 52.5C766.521 50.7656 765.506 49.25 764.204 47.9583C762.912 46.6562 761.381 45.6458 759.62 44.9375C757.87 44.2344 755.959 43.875 753.891 43.875C751.808 43.875 749.876 44.2344 748.1 44.9375C746.334 45.6458 744.798 46.6562 743.495 47.9583C742.204 49.25 741.178 50.7656 740.433 52.5C739.693 54.224 739.329 56.1198 739.329 58.1875C739.329 60.2292 739.693 62.1302 740.433 63.875C741.178 65.6146 742.204 67.1354 743.495 68.4375C744.798 69.7292 746.334 70.7344 748.1 71.4375C749.876 72.1458 751.808 72.5 753.891 72.5Z" fill="#221E1F"/>
<path d="M783.422 57.6457H801.672V60.8123H783.422V57.6457ZM783.818 75.4582H780.172V40.9165H803.859V44.0832H783.818V75.4582Z" fill="#221E1F"/>
<path d="M831.028 75.4582V44.0832H818.882V40.9165H846.819V44.0832H834.674V75.4582H831.028Z" fill="#221E1F"/>
<path d="M877.883 40.9165H881.487V75.4582H877.883V40.9165ZM856.279 75.4582H852.633V40.9165H856.279V75.4582ZM878.237 59.5207H855.883V56.3123H878.237V59.5207Z" fill="#221E1F"/>
<path d="M895.985 56.3748H914.235V59.479H895.985V56.3748ZM896.381 72.2915H917.152V75.4582H892.735V40.9165H916.423V44.0832H896.381V72.2915Z" fill="#221E1F"/>
<path d="M177.789 172.767V92.1416H210.956C218.091 92.1416 224.211 93.2979 229.31 95.5999C234.419 97.9072 238.357 101.215 241.122 105.517C243.883 109.808 245.268 114.918 245.268 120.829C245.268 126.746 243.883 131.86 241.122 136.162C238.357 140.454 234.419 143.756 229.31 146.058C224.211 148.35 218.091 149.496 210.956 149.496H186.081L192.747 142.475V172.767H177.789ZM192.747 144.1L186.081 136.829H210.268C216.862 136.829 221.831 135.433 225.164 132.642C228.508 129.84 230.185 125.902 230.185 120.829C230.185 115.678 228.508 111.72 225.164 108.954C221.831 106.194 216.862 104.808 210.268 104.808H186.081L192.747 97.4541V144.1Z" fill="#4A2558"/>
<path d="M316.892 92.1416H331.871V172.767H316.892V92.1416ZM275.204 172.767H260.246V92.1416H275.204V172.767ZM318.059 138.225H273.934V125.433H318.059V138.225Z" fill="#4A2558"/>
<path d="M353.528 172.767V92.1416H368.487V172.767H353.528Z" fill="#4A2558"/>
<path d="M390.265 172.767V92.1416H405.223V160.1H447.39V172.767H390.265Z" fill="#4A2558"/>
<path d="M459.247 172.767V92.1416H474.205V172.767H459.247Z" fill="#4A2558"/>
<path d="M495.984 172.767V92.1416H529.151C536.286 92.1416 542.406 93.2979 547.505 95.5999C552.615 97.9072 556.552 101.215 559.318 105.517C562.078 109.808 563.464 114.918 563.464 120.829C563.464 126.746 562.078 131.86 559.318 136.162C556.552 140.454 552.615 143.756 547.505 146.058C542.406 148.35 536.286 149.496 529.151 149.496H504.276L510.943 142.475V172.767H495.984ZM510.943 144.1L504.276 136.829H528.464C535.057 136.829 540.026 135.433 543.359 132.642C546.703 129.84 548.38 125.902 548.38 120.829C548.38 115.678 546.703 111.72 543.359 108.954C540.026 106.194 535.057 104.808 528.464 104.808H504.276L510.943 97.4541V144.1Z" fill="#4A2558"/>
<path d="M578.439 172.767V92.1416H611.606C618.742 92.1416 624.861 93.2979 629.96 95.5999C635.07 97.9072 639.007 101.215 641.773 105.517C644.533 109.808 645.919 114.918 645.919 120.829C645.919 126.746 644.533 131.86 641.773 136.162C639.007 140.454 635.07 143.756 629.96 146.058C624.861 148.35 618.742 149.496 611.606 149.496H586.731L593.398 142.475V172.767H578.439ZM593.398 144.1L586.731 136.829H610.919C617.512 136.829 622.481 135.433 625.814 132.642C629.158 129.84 630.835 125.902 630.835 120.829C630.835 115.678 629.158 111.72 625.814 108.954C622.481 106.194 617.512 104.808 610.919 104.808H586.731L593.398 97.4541V144.1Z" fill="#4A2558"/>
<path d="M660.896 172.767V92.1421H675.855V172.767H660.896Z" fill="#4A2558"/>
<path d="M697.634 172.767V92.1421H709.946L760.509 154.225H754.405V92.1421H769.259V172.767H756.946L706.384 110.684H712.488V172.767H697.634Z" fill="#4A2558"/>
<path d="M804.728 125.663H844.811V137.996H804.728V125.663ZM805.873 160.205H851.373V172.767H790.915V92.1421H849.748V104.705H805.873V160.205Z" fill="#4A2558"/>
<path d="M893.053 173.913C886.762 173.913 880.73 173.007 874.97 171.204C869.22 169.402 864.647 167.079 861.262 164.246L866.449 152.621C869.668 155.152 873.663 157.262 878.428 158.954C883.189 160.637 888.064 161.475 893.053 161.475C897.272 161.475 900.689 161.017 903.303 160.1C905.913 159.189 907.829 157.944 909.053 156.371C910.288 154.793 910.908 152.996 910.908 150.996C910.908 148.543 910.022 146.569 908.262 145.079C906.496 143.585 904.21 142.392 901.408 141.517C898.6 140.632 895.486 139.803 892.074 139.038C888.658 138.262 885.236 137.361 881.824 136.329C878.408 135.293 875.293 133.944 872.491 132.288C869.699 130.637 867.413 128.428 865.637 125.663C863.871 122.902 862.991 119.366 862.991 115.059C862.991 110.689 864.163 106.678 866.512 103.038C868.855 99.3867 872.428 96.4701 877.22 94.2878C882.022 92.0951 888.105 90.9961 895.47 90.9961C900.314 90.9961 905.116 91.6159 909.866 92.8503C914.626 94.0742 918.772 95.8398 922.303 98.1419L917.595 109.767C913.98 107.616 910.251 106.027 906.408 104.996C902.574 103.96 898.892 103.434 895.366 103.434C891.21 103.434 887.85 103.939 885.283 104.934C882.71 105.934 880.829 107.241 879.637 108.85C878.454 110.465 877.866 112.303 877.866 114.371C877.866 116.829 878.725 118.814 880.449 120.309C882.168 121.809 884.434 122.986 887.241 123.829C890.043 124.663 893.168 125.486 896.616 126.288C900.069 127.095 903.512 128.001 906.928 128.996C910.34 129.996 913.454 131.303 916.262 132.913C919.064 134.527 921.329 136.715 923.053 139.475C924.788 142.241 925.658 145.736 925.658 149.954C925.658 154.262 924.48 158.241 922.137 161.892C919.788 165.533 916.194 168.449 911.366 170.642C906.533 172.819 900.423 173.913 893.053 173.913Z" fill="#4A2558"/>
<path d="M81.4788 177.136L81.432 177.167L81.3486 177.12C81.3955 177.131 81.4372 177.136 81.4788 177.136Z" fill="#1C1D1D"/>
<path d="M34.9997 141.434V141.506C34.9997 141.85 35.1663 142.168 35.4424 142.376L35.4476 142.381C35.4893 142.402 35.5309 142.428 35.5726 142.454L37.4424 143.454L37.4684 143.465L80.9997 166.694C81.3122 166.855 81.6872 166.866 82.0101 166.694L133.505 139.309C134.224 138.928 135.078 139.449 135.078 140.256V158.434C135.078 158.835 134.859 159.204 134.515 159.387L82.0101 187.303C81.6872 187.47 81.3122 187.47 80.9997 187.303L32.7184 161.543L27.8695 158.986C27.5205 158.803 27.3018 158.434 27.3018 158.043V151.158C27.3018 150.345 28.1663 149.835 28.8851 150.21L34.1768 153.038L80.9997 178.022C81.3122 178.199 81.6872 178.199 82.0101 178.022L120.385 157.543L121.052 157.194L121.474 156.96L127.437 153.783C127.51 153.746 127.573 153.699 127.63 153.642C127.864 153.449 128.005 153.152 128.005 152.835C128.005 152.215 127.5 151.756 126.942 151.756C126.765 151.756 126.588 151.798 126.427 151.892L82.0101 175.6C81.6872 175.777 81.3122 175.777 80.9997 175.6L27.8695 147.215C27.5205 147.027 27.3018 146.668 27.3018 146.272V128.027C27.3018 127.215 28.1663 126.694 28.8851 127.085L80.9997 154.923C81.3122 155.09 81.6872 155.09 82.0101 154.923L133.5 127.47C134.218 127.095 135.078 127.605 135.078 128.423V135.256C135.078 135.652 134.859 136.006 134.515 136.199L82.0101 164.194C81.6872 164.355 81.3122 164.355 80.9997 164.194L36.5882 140.486C35.8695 140.105 34.9997 140.616 34.9997 141.434Z" fill="#14233E"/>
<path d="M119.234 100.543C119.234 100.907 119.031 101.241 118.713 101.412L106.604 107.871C105.953 108.225 105.166 107.751 105.166 107.011V99.9124C105.166 99.5478 105.359 99.2197 105.687 99.0478L117.797 92.5843C118.448 92.2405 119.234 92.7093 119.234 93.454V100.543ZM131.521 71.0895L84.0465 96.428C83.2132 96.8707 82.6924 97.7405 82.6924 98.6884V146.121C82.6924 148.058 84.7549 149.293 86.4632 148.386L103.26 139.428C104.432 138.798 105.166 137.574 105.166 136.246V120.793L135.297 105.532V73.3499C135.297 71.4176 133.234 70.178 131.521 71.0895Z" fill="#4A2457"/>
<path d="M50.3854 93.2719V99.5427L79.6042 115.136V146.616C79.6042 148.178 77.9375 149.183 76.5521 148.444L28.099 122.574C27.4219 122.22 27 121.517 27 120.746V110.616L60.7604 128.631V122.36L27 104.345V72.1989C27 70.6312 28.6667 69.6364 30.0417 70.3656L78.5052 96.2354C79.1823 96.5948 79.6042 97.3031 79.6042 98.0635V108.866" fill="#C09730"/>
<path d="M130.505 66.8031L115.198 75.1572L87.2968 60.5218L71.6457 68.4697L99.8697 83.527L81.7291 93.4229C81.302 93.6572 80.7759 93.6572 80.3436 93.4229L32.078 66.8031C31.0676 66.2458 31.0936 64.7874 32.1197 64.2614L80.3853 39.7354C80.802 39.5322 81.2759 39.5322 81.6822 39.7354L130.458 64.2614C131.495 64.777 131.521 66.251 130.505 66.8031Z" fill="#14233E"/>
<path d="M716.613 201.852C716.474 200.549 715.887 199.535 714.853 198.809C713.829 198.083 712.496 197.72 710.856 197.72C709.702 197.72 708.713 197.894 707.888 198.242C707.063 198.59 706.431 199.062 705.994 199.659C705.556 200.256 705.332 200.937 705.322 201.702C705.322 202.339 705.467 202.891 705.755 203.358C706.053 203.825 706.456 204.223 706.963 204.551C707.47 204.869 708.032 205.138 708.648 205.357C709.265 205.575 709.886 205.759 710.513 205.908L713.376 206.624C714.53 206.893 715.638 207.256 716.702 207.713C717.776 208.17 718.736 208.747 719.581 209.443C720.436 210.139 721.112 210.979 721.609 211.964C722.107 212.948 722.355 214.102 722.355 215.424C722.355 217.214 721.898 218.79 720.983 220.152C720.068 221.504 718.746 222.563 717.016 223.329C715.295 224.085 713.212 224.462 710.766 224.462C708.39 224.462 706.327 224.094 704.577 223.359C702.837 222.623 701.474 221.549 700.49 220.137C699.516 218.725 698.989 217.005 698.909 214.977H704.353C704.433 216.04 704.761 216.925 705.337 217.631C705.914 218.337 706.665 218.864 707.589 219.212C708.524 219.56 709.568 219.734 710.722 219.734C711.925 219.734 712.979 219.555 713.884 219.197C714.798 218.83 715.514 218.322 716.031 217.676C716.548 217.02 716.812 216.254 716.822 215.379C716.812 214.584 716.578 213.928 716.121 213.411C715.663 212.884 715.022 212.446 714.197 212.098C713.381 211.74 712.427 211.422 711.333 211.143L707.858 210.249C705.342 209.602 703.354 208.623 701.892 207.31C700.44 205.988 699.714 204.233 699.714 202.045C699.714 200.246 700.202 198.67 701.176 197.317C702.161 195.965 703.498 194.916 705.188 194.17C706.879 193.415 708.793 193.037 710.93 193.037C713.098 193.037 714.997 193.415 716.628 194.17C718.268 194.916 719.556 195.955 720.491 197.288C721.425 198.61 721.908 200.131 721.938 201.852H716.613ZM725.946 198.093V193.455H750.317V198.093H740.876V224H735.387V198.093H725.946ZM774.27 193.455H779.803V213.411C779.803 215.598 779.286 217.522 778.252 219.183C777.228 220.843 775.786 222.141 773.927 223.075C772.067 224 769.895 224.462 767.409 224.462C764.913 224.462 762.736 224 760.876 223.075C759.017 222.141 757.575 220.843 756.551 219.183C755.527 217.522 755.015 215.598 755.015 213.411V193.455H760.548V212.948C760.548 214.221 760.827 215.354 761.383 216.349C761.95 217.343 762.746 218.124 763.77 218.69C764.794 219.247 766.007 219.526 767.409 219.526C768.811 219.526 770.024 219.247 771.048 218.69C772.082 218.124 772.878 217.343 773.434 216.349C773.991 215.354 774.27 214.221 774.27 212.948V193.455ZM796.168 224H785.817V193.455H796.377C799.41 193.455 802.015 194.066 804.192 195.289C806.38 196.502 808.06 198.247 809.234 200.524C810.407 202.801 810.994 205.526 810.994 208.697C810.994 211.879 810.402 214.614 809.219 216.901C808.045 219.187 806.35 220.942 804.133 222.165C801.925 223.388 799.271 224 796.168 224ZM791.351 219.212H795.9C798.028 219.212 799.803 218.825 801.224 218.049C802.646 217.263 803.715 216.095 804.431 214.544C805.147 212.983 805.505 211.034 805.505 208.697C805.505 206.361 805.147 204.422 804.431 202.881C803.715 201.33 802.656 200.171 801.254 199.406C799.862 198.63 798.132 198.242 796.064 198.242H791.351V219.212ZM816.251 224V193.455H836.118V198.093H821.784V206.386H835.088V211.024H821.784V219.362H836.237V224H816.251ZM866.864 193.455V224H861.942L847.55 203.194H847.296V224H841.763V193.455H846.714L861.092 214.276H861.361V193.455H866.864ZM871.551 198.093V193.455H895.922V198.093H886.481V224H880.992V198.093H871.551ZM917.22 201.852C917.081 200.549 916.494 199.535 915.46 198.809C914.436 198.083 913.104 197.72 911.463 197.72C910.31 197.72 909.32 197.894 908.495 198.242C907.67 198.59 907.039 199.062 906.601 199.659C906.164 200.256 905.94 200.937 905.93 201.702C905.93 202.339 906.074 202.891 906.362 203.358C906.661 203.825 907.063 204.223 907.57 204.551C908.078 204.869 908.639 205.138 909.256 205.357C909.872 205.575 910.494 205.759 911.12 205.908L913.984 206.624C915.137 206.893 916.246 207.256 917.31 207.713C918.384 208.17 919.343 208.747 920.188 209.443C921.044 210.139 921.72 210.979 922.217 211.964C922.714 212.948 922.963 214.102 922.963 215.424C922.963 217.214 922.505 218.79 921.59 220.152C920.676 221.504 919.353 222.563 917.623 223.329C915.903 224.085 913.82 224.462 911.374 224.462C908.997 224.462 906.934 224.094 905.184 223.359C903.444 222.623 902.082 221.549 901.097 220.137C900.123 218.725 899.596 217.005 899.517 214.977H904.96C905.04 216.04 905.368 216.925 905.945 217.631C906.521 218.337 907.272 218.864 908.197 219.212C909.132 219.56 910.176 219.734 911.329 219.734C912.532 219.734 913.586 219.555 914.491 219.197C915.406 218.83 916.122 218.322 916.639 217.676C917.156 217.02 917.419 216.254 917.429 215.379C917.419 214.584 917.186 213.928 916.728 213.411C916.271 212.884 915.629 212.446 914.804 212.098C913.989 211.74 913.034 211.422 911.941 211.143L908.465 210.249C905.95 209.602 903.961 208.623 902.499 207.31C901.048 205.988 900.322 204.233 900.322 202.045C900.322 200.246 900.809 198.67 901.784 197.317C902.768 195.965 904.105 194.916 905.796 194.17C907.486 193.415 909.4 193.037 911.538 193.037C913.705 193.037 915.605 193.415 917.235 194.17C918.876 194.916 920.164 195.955 921.098 197.288C922.033 198.61 922.515 200.131 922.545 201.852H917.22Z" fill="#D4A923"/>
</g>
<defs>
<clipPath id="clip0_510_241">
<rect width="939" height="242" fill="white"/>
</clipPath>
</defs>
</svg>
