<svg width="108" height="148" viewBox="0 0 108 148" fill="none" xmlns="http://www.w3.org/2000/svg">
<g clip-path="url(#clip0_515_332)">
<path d="M7.99967 101.851V101.923C7.99967 102.267 8.16634 102.585 8.44238 102.793L8.44759 102.798C8.48926 102.819 8.53092 102.845 8.57259 102.871L10.4424 103.871L10.4684 103.882L53.9997 127.111C54.3122 127.272 54.6872 127.283 55.0101 127.111L106.505 99.7255C107.224 99.3453 108.078 99.8662 108.078 100.673V118.851C108.078 119.252 107.859 119.621 107.515 119.804L55.0101 147.72C54.6872 147.887 54.3122 147.887 53.9997 147.72L5.71842 121.96L0.869466 119.403C0.520507 119.22 0.301758 118.851 0.301758 118.46V111.574C0.301758 110.762 1.16634 110.252 1.88509 110.627L7.17676 113.455L53.9997 138.439C54.3122 138.616 54.6872 138.616 55.0101 138.439L93.3851 117.96L94.0518 117.611L94.4736 117.377L100.437 114.199C100.51 114.163 100.573 114.116 100.63 114.059C100.864 113.866 101.005 113.569 101.005 113.252C101.005 112.632 100.5 112.173 99.9424 112.173C99.7653 112.173 99.5882 112.215 99.4268 112.309L55.0101 136.017C54.6872 136.194 54.3122 136.194 53.9997 136.017L0.869466 107.632C0.520507 107.444 0.301758 107.085 0.301758 106.689V88.4443C0.301758 87.6318 1.16634 87.111 1.88509 87.5016L53.9997 115.34C54.3122 115.507 54.6872 115.507 55.0101 115.34L106.5 87.887C107.218 87.512 108.078 88.0224 108.078 88.8401V95.6735C108.078 96.0693 107.859 96.4235 107.515 96.6162L55.0101 124.611C54.6872 124.772 54.3122 124.772 53.9997 124.611L9.58822 100.903C8.86947 100.522 7.99967 101.033 7.99967 101.851Z" fill="#14233E"/>
<path d="M92.2341 60.9596C92.2341 61.3242 92.0309 61.6575 91.7132 61.8294L79.6038 68.2877C78.9528 68.6419 78.1663 68.1679 78.1663 67.4283V60.3294C78.1663 59.9648 78.359 59.6367 78.6872 59.4648L90.7966 53.0012C91.4476 52.6575 92.2341 53.1262 92.2341 53.871V60.9596ZM104.521 31.5065L57.0465 56.845C56.2132 57.2877 55.6924 58.1575 55.6924 59.1054V106.538C55.6924 108.475 57.7549 109.71 59.4632 108.803L76.2601 99.845C77.432 99.2148 78.1663 97.9908 78.1663 96.6627V81.2096L108.297 65.9492V33.7669C108.297 31.8346 106.234 30.595 104.521 31.5065Z" fill="#4A2457"/>
<path d="M23.3854 53.6889V59.9597L52.6042 75.5534V107.033C52.6042 108.595 50.9375 109.6 49.5521 108.861L1.09896 82.9909C0.421875 82.6368 0 81.9336 0 81.1628V71.0326L33.7604 89.0482V82.7774L0 64.7618V32.6159C0 31.0482 1.66667 30.0534 3.04167 30.7826L51.5052 56.6524C52.1823 57.0118 52.6042 57.7201 52.6042 58.4805V69.2826" fill="#C09730"/>
<path d="M103.505 27.2201L88.1978 35.5742L60.2968 20.9388L44.6457 28.8867L72.8697 43.944L54.7291 53.8398C54.302 54.0742 53.7759 54.0742 53.3436 53.8398L5.07801 27.2201C4.06759 26.6628 4.09364 25.2044 5.11968 24.6784L53.3853 0.152344C53.802 -0.0507813 54.2759 -0.0507813 54.6822 0.152344L103.458 24.6784C104.495 25.194 104.521 26.668 103.505 27.2201Z" fill="#14233E"/>
</g>
<defs>
<clipPath id="clip0_515_332">
<rect width="108" height="148" fill="white"/>
</clipPath>
</defs>
</svg>
