<svg width="45" height="35" viewBox="0 0 45 35" fill="currentColor" xmlns="http://www.w3.org/2000/svg">
<path d="M37.6386 3.03299C34.7785 1.68247 31.7204 0.700967 28.5232 0.14209C28.1305 0.85855 27.6718 1.82221 27.3555 2.58879C23.9568 2.07295 20.5894 2.07295 17.2532 2.58879C16.937 1.82221 16.4678 0.85855 16.0716 0.14209C12.871 0.700967 9.80935 1.68608 6.94928 3.04015C1.18048 11.8381 -0.383351 20.4175 0.398564 28.8751C4.22474 31.7588 7.93276 33.5106 11.5782 34.6569C12.4783 33.4067 13.281 32.0777 13.9726 30.677C12.6555 30.1719 11.394 29.5486 10.2021 28.825C10.5183 28.5886 10.8276 28.3414 11.1264 28.087C18.3965 31.5189 26.2956 31.5189 33.4788 28.087C33.7811 28.3414 34.0904 28.5886 34.4031 28.825C33.2077 29.5522 31.9428 30.1755 30.6257 30.6806C31.3172 32.0777 32.1165 33.4103 33.02 34.6604C36.669 33.5141 40.3805 31.7624 44.2066 28.8751C45.1241 19.0706 42.6394 10.57 37.6386 3.03299ZM14.963 23.6738C12.7806 23.6738 10.9909 21.6176 10.9909 19.1136C10.9909 16.6096 12.7424 14.5498 14.963 14.5498C17.1837 14.5498 18.9734 16.606 18.9352 19.1136C18.9386 21.6176 17.1837 23.6738 14.963 23.6738ZM29.6422 23.6738C27.4598 23.6738 25.6701 21.6176 25.6701 19.1136C25.6701 16.6096 27.4215 14.5498 29.6422 14.5498C31.8628 14.5498 33.6525 16.606 33.6143 19.1136C33.6143 21.6176 31.8628 23.6738 29.6422 23.6738Z" />
</svg>
