<svg width="45" height="43" viewBox="0 0 45 43" fill="currentColor" xmlns="http://www.w3.org/2000/svg">
<path d="M22.9081 0C10.7098 0 0.816406 9.82471 0.816406 21.9424C0.816406 31.6373 7.14569 39.862 15.9253 42.7639C17.0281 42.9669 17.3852 42.2867 17.3852 41.7089V37.6239C11.24 38.9514 9.96055 35.0347 9.96055 35.0347C8.95537 32.4985 7.50652 31.8238 7.50652 31.8238C5.5017 30.4616 7.65932 30.4908 7.65932 30.4908C9.8777 30.6444 11.0449 32.7527 11.0449 32.7527C13.0147 36.1062 16.2125 35.1371 17.4736 34.5758C17.6706 33.1586 18.2431 32.1895 18.8764 31.6428C13.9702 31.0851 8.81178 29.2035 8.81178 20.7977C8.81178 18.4005 9.6752 16.444 11.0872 14.908C10.8589 14.354 10.1023 12.1214 11.3026 9.10062C11.3026 9.10062 13.1583 8.51183 17.3797 11.3497C19.1415 10.8633 21.0304 10.6201 22.9081 10.611C24.7859 10.6201 26.6766 10.8633 28.4421 11.3497C32.6598 8.51183 34.5118 9.10062 34.5118 9.10062C35.714 12.1232 34.9574 14.3558 34.7291 14.908C36.1466 16.444 37.0027 18.4024 37.0027 20.7977C37.0027 29.2255 31.8351 31.0814 26.916 31.6245C27.7076 32.3047 28.4311 33.6395 28.4311 35.6875V41.7089C28.4311 42.2922 28.7846 42.9779 29.9057 42.7621C38.678 39.8566 44.9999 31.6336 44.9999 21.9424C44.9999 9.82471 35.1083 0 22.9081 0Z" />
</svg>
